<?xml version="1.0" encoding="UTF-8" standalone="no"?>
<!DOCTYPE svg PUBLIC "-//W3C//DTD SVG 1.1//EN" "http://www.w3.org/Graphics/SVG/1.1/DTD/svg11.dtd">
<svg width="100%" height="100%" viewBox="0 0 1330 765" version="1.1" xmlns="http://www.w3.org/2000/svg" xmlns:xlink="http://www.w3.org/1999/xlink" xml:space="preserve" xmlns:serif="http://www.serif.com/" style="fill-rule:evenodd;clip-rule:evenodd;stroke-linejoin:round;stroke-miterlimit:2;">
    <g transform="matrix(525.302,0,0,503.791,-24.6235,366.512)">
        <path d="M0.676,-0.727L0.676,0L0.511,0L0.236,-0.382L0.236,0L0.047,0L0.047,-0.727L0.214,-0.727L0.488,-0.347L0.488,-0.347L0.488,-0.727L0.676,-0.727Z" style="fill:rgb(85,85,85);fill-rule:nonzero;"/>
    </g>
    <g transform="matrix(503.791,0,0,503.791,346.167,367.508)">
        <path d="M0.477,-0.727L0.675,-0.727L0.675,-0.261C0.675,-0.206 0.662,-0.158 0.635,-0.118C0.609,-0.077 0.572,-0.046 0.525,-0.024C0.478,-0.002 0.423,0.009 0.361,0.009C0.298,0.009 0.243,-0.002 0.196,-0.024C0.149,-0.046 0.112,-0.077 0.086,-0.118C0.06,-0.158 0.047,-0.206 0.047,-0.261L0.047,-0.727L0.244,-0.727L0.244,-0.278C0.244,-0.245 0.255,-0.217 0.277,-0.195C0.299,-0.173 0.327,-0.162 0.361,-0.162C0.395,-0.162 0.423,-0.173 0.444,-0.195C0.466,-0.217 0.477,-0.245 0.477,-0.278L0.477,-0.727Z" style="fill:rgb(85,85,85);fill-rule:nonzero;"/>
    </g>
    <g transform="matrix(503.791,0,0,503.791,701.637,367.508)">
        <path d="M0.047,0L0.047,-0.727L0.571,-0.727L0.571,-0.568L0.244,-0.568L0.244,-0.443L0.544,-0.443L0.544,-0.284L0.244,-0.284L0.244,-0.159L0.57,-0.159L0.57,0L0.047,0Z" style="fill:rgb(85,85,85);fill-rule:nonzero;"/>
    </g>
    <g transform="matrix(503.791,0,0,503.791,-23.6152,760.706)">
        <path d="M0.047,0L0.047,-0.727L0.244,-0.727L0.244,-0.443L0.506,-0.443L0.506,-0.727L0.703,-0.727L0.703,0L0.506,0L0.506,-0.284L0.244,-0.284L0.244,0L0.047,0Z" style="fill:rgb(85,85,85);fill-rule:nonzero;"/>
    </g>
    <g transform="matrix(503.791,0,0,503.791,346.167,760.706)">
        <path d="M0.477,-0.727L0.675,-0.727L0.675,-0.261C0.675,-0.206 0.662,-0.158 0.635,-0.118C0.609,-0.077 0.572,-0.046 0.525,-0.024C0.478,-0.002 0.423,0.009 0.361,0.009C0.298,0.009 0.243,-0.002 0.196,-0.024C0.149,-0.046 0.112,-0.077 0.086,-0.118C0.06,-0.158 0.047,-0.206 0.047,-0.261L0.047,-0.727L0.244,-0.727L0.244,-0.278C0.244,-0.245 0.255,-0.217 0.277,-0.195C0.299,-0.173 0.327,-0.162 0.361,-0.162C0.395,-0.162 0.423,-0.173 0.444,-0.195C0.466,-0.217 0.477,-0.245 0.477,-0.278L0.477,-0.727Z" style="fill:rgb(85,85,85);fill-rule:nonzero;"/>
    </g>
    <g transform="matrix(503.791,0,0,503.791,701.637,760.706)">
        <path d="M0.047,0L0.047,-0.727L0.571,-0.727L0.571,-0.568L0.244,-0.568L0.244,-0.443L0.544,-0.443L0.544,-0.284L0.244,-0.284L0.244,-0.159L0.57,-0.159L0.57,0L0.047,0Z" style="fill:rgb(85,85,85);fill-rule:nonzero;"/>
    </g>
    <g transform="matrix(503.791,0,0,503.791,1007.01,760.706)">
        <path d="M0.439,-0.5C0.437,-0.524 0.428,-0.542 0.412,-0.555C0.397,-0.569 0.373,-0.575 0.341,-0.575C0.31,-0.575 0.288,-0.57 0.274,-0.56C0.26,-0.549 0.253,-0.536 0.253,-0.52C0.252,-0.503 0.259,-0.489 0.275,-0.478C0.291,-0.467 0.317,-0.458 0.351,-0.45L0.411,-0.438C0.491,-0.42 0.549,-0.393 0.584,-0.355C0.62,-0.317 0.638,-0.27 0.638,-0.214C0.638,-0.143 0.611,-0.088 0.559,-0.049C0.507,-0.011 0.434,0.009 0.342,0.009C0.279,0.009 0.224,-0.001 0.177,-0.02C0.13,-0.038 0.094,-0.067 0.068,-0.106C0.042,-0.145 0.029,-0.195 0.028,-0.256L0.216,-0.256C0.218,-0.222 0.229,-0.197 0.251,-0.18C0.272,-0.162 0.302,-0.153 0.339,-0.153C0.371,-0.153 0.395,-0.159 0.411,-0.17C0.428,-0.182 0.436,-0.196 0.436,-0.214C0.436,-0.231 0.428,-0.245 0.412,-0.256C0.395,-0.267 0.367,-0.277 0.327,-0.286L0.254,-0.301C0.19,-0.315 0.139,-0.338 0.102,-0.371C0.065,-0.404 0.047,-0.449 0.047,-0.506C0.047,-0.552 0.059,-0.592 0.084,-0.627C0.109,-0.662 0.144,-0.689 0.188,-0.708C0.232,-0.728 0.283,-0.737 0.341,-0.737C0.4,-0.737 0.45,-0.727 0.493,-0.708C0.536,-0.688 0.569,-0.66 0.593,-0.625C0.616,-0.589 0.628,-0.548 0.628,-0.5L0.439,-0.5Z" style="fill:rgb(85,85,85);fill-rule:nonzero;"/>
    </g>
    <g transform="matrix(1.03512,0,0,0.988417,-87.7836,-130.944)">
        <rect x="1079.17" y="133.607" width="288.901" height="370.687" style="fill:url(#_Linear1);"/>
    </g>
    <defs>
        <linearGradient id="_Linear1" x1="0" y1="0" x2="1" y2="0" gradientUnits="userSpaceOnUse" gradientTransform="matrix(288.901,-346.037,330.426,302.55,1079.17,491.097)"><stop offset="0" style="stop-color:rgb(227,243,31);stop-opacity:1"/><stop offset="0.5" style="stop-color:rgb(255,72,77);stop-opacity:1"/><stop offset="1" style="stop-color:rgb(162,27,231);stop-opacity:1"/></linearGradient>
    </defs>
</svg>
